<svg id="svg" version="1.1" width="800" height="532" xmlns="http://www.w3.org/2000/svg"><path d="M388.000 26.585 C 379.211 28.156,370.609 30.681,362.647 34.026 C 352.685 38.211,335.706 46.814,330.515 50.306 C 319.482 57.729,314.787 61.435,311.075 65.652 C 306.867 70.433,298.000 85.187,298.000 87.408 C 298.000 88.064,297.613 89.028,297.141 89.550 C 295.417 91.456,290.063 108.351,285.907 125.000 C 284.151 132.033,283.876 135.398,284.310 144.500 C 284.944 157.792,287.550 172.958,289.544 174.964 C 291.517 176.949,291.480 175.982,288.892 158.082 C 286.651 142.577,286.779 134.899,289.430 125.689 C 290.251 122.835,292.115 116.225,293.571 111.000 C 298.228 94.293,304.798 80.316,312.673 70.365 C 315.899 66.289,328.823 56.000,330.717 56.000 C 331.252 56.000,332.547 55.049,333.595 53.886 C 334.643 52.723,338.200 50.448,341.500 48.830 C 344.800 47.213,348.850 45.100,350.500 44.135 C 356.428 40.670,372.627 34.135,379.000 32.638 C 390.705 29.889,394.000 29.620,394.000 31.412 C 394.000 32.285,394.450 33.000,395.000 33.000 C 395.550 33.000,396.000 32.294,396.000 31.432 C 396.000 28.084,425.641 31.062,428.649 34.712 C 429.571 35.831,429.884 35.849,430.235 34.803 C 430.580 33.772,431.801 33.884,436.086 35.339 C 448.091 39.418,451.567 41.095,452.531 43.274 C 453.239 44.877,454.239 45.426,456.100 45.237 C 458.968 44.945,469.799 50.147,476.301 54.940 C 478.611 56.642,483.065 59.714,486.200 61.767 C 493.056 66.257,501.680 75.977,505.231 83.218 C 510.748 94.470,515.978 108.957,516.029 113.134 C 516.045 114.435,516.932 118.650,518.000 122.500 C 520.374 131.058,520.678 149.885,518.632 161.640 C 517.019 170.904,516.673 183.485,517.838 190.500 L 518.669 195.500 519.395 191.500 C 519.795 189.300,521.026 185.458,522.132 182.963 C 523.238 180.468,524.057 177.993,523.953 177.463 C 523.485 175.088,524.106 173.827,525.483 174.355 C 526.424 174.716,528.130 173.476,530.151 170.962 C 531.902 168.783,533.724 167.000,534.199 167.000 C 536.782 167.000,535.414 170.692,529.621 179.356 C 526.063 184.678,522.869 190.321,522.523 191.896 C 522.177 193.470,520.568 196.244,518.947 198.059 C 516.600 200.688,515.998 202.290,515.992 205.930 C 515.988 208.444,515.525 214.325,514.963 219.000 C 514.401 223.675,513.524 232.393,513.014 238.374 C 512.389 245.693,511.581 249.805,510.543 250.953 C 509.694 251.890,508.998 254.197,508.996 256.079 C 508.992 259.407,505.498 280.167,502.541 294.430 C 501.040 301.672,498.037 311.180,496.174 314.588 C 493.677 319.158,492.781 324.333,492.297 337.000 L 491.781 350.500 495.845 357.407 C 498.081 361.206,500.207 365.706,500.571 367.407 C 500.934 369.108,501.570 370.950,501.985 371.500 C 502.400 372.050,503.284 374.192,503.950 376.260 C 505.066 379.722,504.965 380.253,502.684 382.964 L 500.206 385.909 499.576 382.551 C 499.229 380.704,498.283 378.939,497.473 378.628 C 496.323 378.187,495.990 378.987,495.956 382.281 C 495.932 384.602,495.459 388.525,494.905 391.000 C 492.818 400.316,491.974 406.149,492.573 407.118 C 493.365 408.400,495.926 405.100,495.968 402.743 C 496.016 400.098,501.025 391.285,505.161 386.570 C 507.174 384.274,508.934 381.744,509.071 380.948 C 509.326 379.468,507.790 374.874,506.000 371.764 C 502.188 365.143,511.778 367.648,519.750 375.356 C 526.610 381.988,526.659 385.073,520.123 399.000 C 517.007 405.641,506.914 419.844,502.713 423.503 C 500.396 425.520,497.537 428.033,496.359 429.086 C 495.182 430.138,493.789 431.000,493.264 431.000 C 492.739 431.000,491.467 431.932,490.436 433.071 C 484.792 439.307,462.084 449.532,448.000 452.179 C 444.975 452.747,441.600 453.391,440.500 453.609 C 439.400 453.828,436.752 454.286,434.615 454.628 L 430.730 455.250 431.377 451.804 C 432.088 448.015,431.536 446.857,429.409 447.673 C 428.552 448.002,428.222 449.036,428.552 450.354 C 428.847 451.534,428.475 453.339,427.725 454.364 C 426.516 456.015,424.454 456.286,409.675 456.732 C 397.611 457.097,392.593 456.908,391.559 456.049 C 390.510 455.178,389.588 455.150,388.104 455.945 C 385.525 457.325,379.869 456.105,371.313 452.322 C 366.128 450.030,364.816 448.977,364.332 446.714 C 364.004 445.182,362.912 443.488,361.905 442.949 C 360.898 442.410,360.296 441.392,360.567 440.687 C 360.837 439.981,359.921 438.335,358.529 437.028 C 355.136 433.839,355.339 435.566,359.045 441.410 C 360.720 444.051,361.968 446.951,361.820 447.856 C 361.671 448.760,361.903 450.063,362.334 450.750 C 362.864 451.595,362.470 452.000,361.118 452.000 C 360.018 452.000,358.874 451.605,358.576 451.123 C 358.278 450.641,355.941 449.719,353.383 449.075 C 346.235 447.275,340.916 444.237,336.199 439.260 C 333.833 436.764,331.133 434.618,330.199 434.492 C 326.439 433.982,324.184 432.713,322.955 430.416 C 322.244 429.087,321.133 428.000,320.487 428.000 C 318.770 428.000,307.464 416.695,304.524 412.038 C 303.136 409.839,302.000 406.906,302.000 405.520 C 302.000 404.134,301.550 403.000,301.000 403.000 C 300.450 403.000,300.000 403.505,300.000 404.122 C 300.000 406.817,297.080 402.531,294.134 395.511 C 290.347 386.489,290.082 381.075,293.250 377.417 C 296.246 373.956,304.942 367.609,305.678 368.345 C 305.999 368.666,305.528 370.475,304.631 372.365 C 302.902 376.009,302.440 381.000,303.832 381.000 C 304.563 381.000,305.578 377.857,307.708 369.000 C 308.039 367.625,309.308 365.150,310.529 363.500 C 311.750 361.850,313.469 358.250,314.350 355.500 C 316.456 348.924,316.676 331.937,314.726 326.500 C 313.937 324.300,312.968 320.700,312.572 318.500 C 312.176 316.300,310.721 310.450,309.338 305.500 C 307.956 300.550,304.840 287.752,302.415 277.061 C 299.990 266.369,297.442 257.273,296.753 256.848 C 295.309 255.957,292.287 240.005,291.477 229.000 C 291.173 224.875,290.445 219.357,289.860 216.738 C 289.274 214.119,289.025 211.377,289.307 210.643 C 289.588 209.910,288.981 207.440,287.958 205.155 C 286.652 202.239,285.487 201.000,284.049 201.000 C 282.922 201.000,282.000 200.550,282.000 200.000 C 282.000 199.450,282.450 199.000,283.000 199.000 C 283.550 199.000,284.000 198.550,284.000 198.000 C 284.000 197.450,283.100 197.000,282.000 197.000 C 280.552 197.000,280.000 196.333,280.000 194.583 C 280.000 193.254,280.563 191.938,281.250 191.659 C 282.202 191.273,282.156 190.913,281.058 190.148 C 279.189 188.847,277.076 191.478,277.032 195.161 C 277.014 196.625,276.049 200.308,274.886 203.347 C 273.209 207.729,272.957 209.662,273.669 212.686 C 274.491 216.182,274.897 216.542,278.533 217.000 C 282.034 217.441,282.468 217.787,282.228 219.938 C 281.863 223.222,281.259 223.643,278.968 222.212 C 276.470 220.652,276.000 220.686,276.000 222.423 C 276.000 223.206,277.125 225.184,278.500 226.818 C 279.875 228.452,281.000 230.344,281.000 231.024 C 281.000 231.703,283.025 234.144,285.500 236.449 C 289.469 240.145,290.000 241.141,290.000 244.886 C 290.000 247.221,290.466 250.002,291.035 251.066 C 292.968 254.677,287.750 253.293,282.306 248.750 C 277.217 244.503,275.290 240.573,277.177 238.291 C 278.210 237.042,277.368 231.000,276.160 231.000 C 275.786 231.000,274.309 229.914,272.878 228.587 C 269.255 225.229,268.264 215.275,270.519 204.904 C 271.404 200.832,272.387 195.700,272.704 193.500 C 273.020 191.300,274.036 187.925,274.961 186.000 C 277.049 181.657,276.567 179.180,273.484 178.407 C 270.154 177.571,269.521 178.215,267.568 184.422 C 266.122 189.019,265.904 192.950,266.221 208.704 L 266.598 227.500 270.362 236.500 C 272.885 242.534,275.506 246.926,278.313 249.827 C 283.398 255.082,285.345 256.227,290.419 256.945 L 294.337 257.500 296.141 265.500 C 297.133 269.900,298.893 277.775,300.052 283.000 C 301.211 288.225,303.664 298.125,305.503 305.000 C 310.738 324.564,311.785 329.806,312.532 340.197 C 313.166 349.002,313.025 350.317,311.002 354.496 C 308.096 360.498,300.813 367.896,294.351 371.409 C 289.906 373.825,289.032 374.813,287.964 378.627 C 286.307 384.546,287.272 391.316,290.726 398.000 C 304.103 423.892,326.577 444.215,351.500 452.959 C 364.654 457.574,386.863 461.019,403.211 460.980 C 423.537 460.933,454.242 455.863,470.500 449.870 C 481.005 445.997,495.040 437.284,506.122 427.755 C 512.448 422.314,524.018 403.174,527.979 391.593 C 530.939 382.941,530.658 380.669,526.000 375.616 C 523.800 373.229,522.000 370.989,522.000 370.638 C 522.000 369.076,525.072 370.274,529.252 373.466 C 534.050 377.130,547.346 383.936,564.907 391.717 C 573.481 395.516,592.355 404.892,615.362 416.779 C 616.936 417.593,620.853 419.887,624.068 421.879 C 643.489 433.911,656.510 441.694,666.058 446.978 C 692.427 461.569,695.163 463.489,703.000 472.908 C 705.475 475.883,708.852 479.933,710.505 481.908 C 717.813 490.644,720.577 494.866,726.482 506.313 C 729.940 513.016,733.758 521.538,734.966 525.250 C 736.310 529.378,737.714 532.000,738.582 532.000 C 739.362 532.000,739.989 531.212,739.975 530.250 C 739.887 523.925,727.277 497.559,719.636 487.723 C 710.971 476.568,702.677 466.689,698.888 463.008 C 695.985 460.189,671.597 445.319,657.871 438.000 C 654.446 436.174,639.868 427.421,631.000 421.868 C 618.793 414.222,582.418 395.394,566.000 388.223 C 560.775 385.941,550.200 380.979,542.500 377.197 C 529.149 370.639,519.645 366.974,512.015 365.439 C 507.009 364.432,504.590 362.557,499.366 355.633 L 494.739 349.500 495.373 336.750 C 495.846 327.247,496.544 322.664,498.113 318.750 C 505.133 301.246,512.000 270.817,512.000 257.212 C 512.000 252.380,512.182 251.998,514.750 251.438 C 523.284 249.575,527.159 245.954,532.874 234.500 C 535.513 229.211,537.567 223.057,538.933 216.343 C 542.521 198.713,541.408 170.812,536.901 165.381 C 536.271 164.621,533.966 164.000,531.779 164.000 C 528.620 164.000,527.206 164.639,524.901 167.106 C 523.306 168.814,522.000 170.614,522.000 171.106 C 522.000 171.598,521.325 172.000,520.500 172.000 C 518.654 172.000,518.649 172.186,520.646 166.876 C 523.190 160.114,523.768 130.474,521.555 120.237 C 513.864 84.647,504.014 68.107,482.000 53.815 C 469.863 45.935,468.402 45.080,460.024 40.944 C 437.583 29.866,426.993 27.039,406.000 26.520 C 397.475 26.310,389.375 26.339,388.000 26.585 M316.407 69.502 C 315.421 71.006,314.976 73.093,315.289 74.734 C 315.878 77.813,313.855 82.458,311.537 83.347 C 310.692 83.672,310.000 84.678,310.000 85.584 C 310.000 87.110,310.182 87.111,312.500 85.592 C 314.563 84.240,315.000 84.203,315.000 85.378 C 315.000 87.102,308.250 91.273,306.855 90.410 C 306.310 90.073,306.105 89.168,306.400 88.399 C 306.696 87.629,306.501 87.000,305.969 87.000 C 304.890 87.000,304.667 90.968,305.607 93.418 C 305.941 94.288,306.841 95.000,307.607 95.000 C 308.373 95.000,309.000 95.365,309.000 95.812 C 309.000 96.924,302.706 101.536,301.646 101.201 C 300.024 100.688,296.973 102.148,297.588 103.143 C 297.946 103.722,299.841 103.865,302.103 103.483 C 306.278 102.777,306.610 103.050,304.905 105.781 C 303.448 108.113,306.623 119.777,308.267 118.133 C 309.022 117.378,308.974 115.460,308.100 111.558 C 307.100 107.087,307.116 105.598,308.184 103.659 C 308.908 102.344,310.791 98.868,312.369 95.933 C 313.947 92.999,316.182 89.321,317.335 87.760 C 319.046 85.447,319.217 84.577,318.261 83.047 C 317.334 81.561,317.393 80.919,318.545 79.963 C 320.485 78.352,320.381 77.325,318.018 74.789 C 314.435 70.943,319.274 68.170,323.321 71.750 C 325.243 73.450,325.281 73.424,324.651 70.833 C 324.233 69.111,324.446 67.987,325.252 67.662 C 325.938 67.385,324.598 67.122,322.273 67.079 C 318.819 67.014,317.746 67.458,316.407 69.502 M506.198 101.464 C 505.494 103.010,505.434 104.150,506.038 104.523 C 507.553 105.460,507.160 108.000,505.500 108.000 C 503.518 108.000,503.573 109.899,505.577 110.668 C 507.850 111.540,509.251 115.694,509.384 121.952 C 509.479 126.437,509.082 127.823,507.144 129.763 C 504.441 132.469,505.049 134.170,507.823 131.661 C 510.093 129.606,511.000 129.557,511.000 131.492 C 511.000 132.312,510.100 133.545,509.000 134.232 C 507.437 135.208,506.997 136.574,506.985 140.491 C 506.962 147.878,505.673 149.177,503.107 144.398 L 501.014 140.500 501.617 145.610 C 502.243 150.909,500.968 155.000,498.692 155.000 C 497.561 155.000,494.741 163.983,495.587 164.893 C 496.434 165.804,498.921 162.634,499.528 159.871 C 499.890 158.225,501.381 155.565,502.843 153.960 C 508.916 147.287,510.000 145.560,510.000 142.564 C 510.000 140.849,510.680 138.474,511.511 137.288 C 512.607 135.723,512.869 133.670,512.464 129.815 C 512.157 126.892,511.814 122.700,511.703 120.500 C 511.591 118.300,510.938 115.517,510.250 114.316 C 509.563 113.114,509.000 109.177,509.000 105.566 C 509.000 98.678,508.081 97.332,506.198 101.464 M492.534 121.823 C 492.915 122.745,493.479 124.400,493.787 125.500 C 494.284 127.277,494.158 127.345,492.649 126.107 C 491.716 125.342,490.797 124.892,490.608 125.107 C 490.418 125.323,490.738 128.298,491.317 131.717 C 492.249 137.220,492.162 138.163,490.562 139.932 C 489.238 141.395,488.949 142.676,489.485 144.715 C 490.276 147.729,490.313 151.495,489.604 157.000 C 489.357 158.925,489.119 161.287,489.077 162.250 C 489.035 163.213,488.352 164.000,487.559 164.000 C 485.623 164.000,484.849 165.444,485.658 167.550 C 486.253 169.102,486.440 169.119,487.464 167.719 C 488.092 166.859,489.420 166.234,490.415 166.328 C 491.969 166.476,492.275 165.535,492.592 159.626 C 492.795 155.846,493.401 152.222,493.938 151.574 C 494.476 150.926,494.660 149.416,494.347 148.219 C 494.005 146.913,494.622 144.610,495.889 142.464 C 498.230 138.495,498.543 133.632,496.939 126.150 C 496.166 122.546,495.329 121.058,493.860 120.674 C 492.272 120.258,491.990 120.504,492.534 121.823 M310.667 131.667 C 310.300 132.033,310.000 133.747,310.000 135.476 C 310.000 137.204,309.339 139.491,308.532 140.559 C 307.095 142.458,307.063 142.453,307.032 140.332 C 306.990 137.463,306.002 135.000,304.893 135.000 C 303.351 135.000,303.920 138.964,305.867 141.790 C 306.894 143.281,308.686 146.075,309.850 148.000 C 311.014 149.925,311.974 150.938,311.983 150.250 C 312.018 147.630,314.653 149.153,315.860 152.490 C 317.174 156.124,319.476 159.000,321.071 159.000 C 322.616 159.000,322.111 154.257,320.500 153.638 C 319.675 153.322,319.000 152.416,319.000 151.626 C 319.000 150.836,317.458 148.343,315.573 146.087 C 312.349 142.229,312.180 141.660,312.713 136.493 C 313.236 131.428,312.542 129.792,310.667 131.667 M272.635 170.073 C 271.186 171.212,270.000 173.012,270.000 174.073 C 270.000 176.584,270.751 176.505,273.089 173.750 C 274.759 171.783,275.156 171.689,276.249 173.000 C 276.937 173.825,278.152 174.500,278.949 174.500 C 280.839 174.500,287.000 182.594,287.000 185.078 C 287.000 187.785,286.060 187.484,282.863 183.750 C 278.936 179.162,279.332 181.806,283.500 188.000 C 285.425 190.861,287.000 193.831,287.000 194.600 C 287.000 196.832,288.708 196.219,289.370 193.750 C 289.701 192.512,289.979 188.943,289.986 185.818 C 289.999 180.701,289.628 179.695,286.250 175.689 C 282.622 171.387,278.209 168.000,276.231 168.000 C 275.702 168.000,274.084 168.933,272.635 170.073 M462.297 173.428 C 460.535 174.218,457.610 174.866,455.797 174.867 C 453.983 174.869,450.025 175.296,447.000 175.815 C 443.975 176.334,439.250 177.101,436.500 177.518 C 433.750 177.935,430.938 178.719,430.250 179.261 C 429.416 179.918,428.533 179.857,427.596 179.079 C 425.587 177.412,421.000 178.783,421.000 181.049 C 421.000 183.429,422.624 184.422,423.364 182.494 C 423.995 180.848,428.000 180.410,428.000 181.987 C 428.000 182.529,426.313 184.525,424.250 186.423 C 421.275 189.159,420.754 190.129,421.730 191.116 C 422.656 192.053,423.520 192.087,425.230 191.255 C 426.478 190.648,429.300 190.275,431.500 190.428 C 433.700 190.580,439.550 190.082,444.500 189.323 C 449.450 188.563,456.650 187.506,460.500 186.976 C 464.350 186.445,469.550 185.133,472.055 184.061 C 476.120 182.322,477.326 182.235,483.274 183.254 C 486.939 183.882,490.277 184.056,490.692 183.641 C 491.855 182.479,488.746 177.689,485.975 176.374 C 478.422 172.787,466.920 171.356,462.297 173.428 M323.500 177.044 C 318.620 178.753,315.374 180.462,315.177 181.423 C 314.999 182.290,314.436 183.000,313.927 183.000 C 313.417 183.000,313.000 183.928,313.000 185.062 C 313.000 186.915,313.581 187.115,318.750 187.037 C 323.972 186.957,333.500 187.627,333.500 188.073 C 333.500 188.310,335.683 188.636,346.000 189.941 C 365.534 192.412,374.537 193.191,378.070 192.717 C 380.130 192.441,382.231 192.631,382.740 193.140 C 383.249 193.649,384.416 193.778,385.333 193.426 C 386.943 192.808,387.515 190.626,387.135 186.553 C 386.908 184.112,384.044 180.855,382.801 181.623 C 382.286 181.941,382.569 182.971,383.435 183.928 C 385.471 186.178,385.516 191.000,383.500 191.000 C 382.572 191.000,382.000 190.059,382.000 188.535 C 382.000 187.179,380.606 184.481,378.901 182.540 C 376.530 179.840,375.270 179.145,373.534 179.581 C 372.286 179.894,368.618 179.612,365.382 178.953 C 354.840 176.807,352.652 176.628,353.489 177.982 C 354.059 178.904,353.481 179.045,351.190 178.542 C 347.675 177.770,344.000 180.560,344.000 184.000 C 344.000 186.109,342.545 186.691,341.500 185.000 C 341.160 184.450,339.870 184.000,338.632 184.000 C 336.200 184.000,332.145 181.522,333.068 180.599 C 333.378 180.289,335.049 180.570,336.782 181.224 C 339.543 182.266,340.214 182.159,342.216 180.355 C 343.472 179.224,345.288 178.020,346.250 177.680 C 347.212 177.341,348.000 176.549,348.000 175.920 C 348.000 174.557,340.691 175.643,340.167 177.084 C 339.983 177.588,339.394 178.000,338.858 178.000 C 338.321 178.000,338.146 177.573,338.469 177.050 C 339.189 175.884,335.797 173.956,333.316 174.121 C 332.317 174.187,327.900 175.502,323.500 177.044 M461.000 179.229 C 447.617 185.086,445.013 185.834,437.000 186.129 C 431.910 186.317,430.500 186.058,430.500 184.934 C 430.500 184.087,432.136 183.109,434.500 182.545 C 436.700 182.019,438.789 181.171,439.143 180.659 C 439.496 180.148,440.921 180.014,442.310 180.363 C 443.909 180.764,445.020 180.539,445.341 179.748 C 445.738 178.771,446.049 178.787,446.778 179.823 C 447.809 181.290,455.000 180.473,455.000 178.889 C 455.000 178.400,456.913 178.030,459.250 178.068 C 463.205 178.131,463.326 178.211,461.000 179.229 M531.658 185.198 C 531.342 186.407,531.477 187.870,531.958 188.449 C 532.439 189.029,533.058 193.102,533.334 197.501 C 533.610 201.901,534.147 207.190,534.528 209.256 C 535.611 215.130,534.288 219.645,530.325 223.608 C 526.866 227.067,526.768 227.368,527.385 232.619 C 528.005 237.896,527.915 238.164,524.262 241.949 C 519.549 246.831,516.000 248.118,516.000 244.945 C 516.000 243.159,516.264 242.974,517.430 243.942 C 518.574 244.892,519.082 244.716,519.965 243.065 C 520.863 241.387,520.777 241.000,519.504 241.000 C 516.578 241.000,516.705 238.059,519.767 234.927 C 521.919 232.726,522.899 230.589,523.271 227.285 C 523.579 224.558,524.434 222.336,525.382 221.806 C 527.566 220.584,529.265 217.165,529.565 213.389 C 529.777 210.723,529.520 210.313,527.908 210.734 C 526.740 211.040,526.000 212.111,526.000 213.494 C 526.000 214.738,525.325 216.315,524.500 217.000 C 523.186 218.091,523.000 217.131,523.000 209.245 C 523.000 203.507,523.544 198.943,524.500 196.654 C 525.325 194.680,526.000 192.107,526.000 190.936 C 526.000 188.515,529.603 183.000,531.185 183.000 C 531.772 183.000,531.981 183.966,531.658 185.198 M442.670 194.630 C 432.751 196.479,421.340 203.722,420.818 208.500 C 420.439 211.970,422.916 217.939,424.750 217.975 C 425.438 217.989,426.000 218.568,426.000 219.263 C 426.000 219.958,428.475 222.459,431.500 224.822 C 434.525 227.184,437.000 229.541,437.000 230.059 C 437.000 230.576,437.439 231.000,437.975 231.000 C 439.895 231.000,436.929 225.703,431.971 220.278 C 429.237 217.286,427.000 214.209,427.000 213.438 C 427.000 211.720,431.149 210.570,434.402 211.386 C 437.232 212.096,443.000 211.113,443.000 209.920 C 443.000 208.471,435.811 207.637,433.854 208.859 C 431.600 210.266,430.000 210.325,430.000 209.000 C 430.000 208.450,430.612 208.000,431.359 208.000 C 432.107 208.000,434.763 206.200,437.263 204.000 C 439.762 201.800,442.027 200.000,442.295 200.000 C 442.564 200.000,443.090 201.238,443.466 202.750 C 444.525 207.016,447.876 210.000,451.609 210.000 C 456.919 210.000,459.973 208.309,461.571 204.483 C 462.856 201.410,463.301 201.091,465.023 202.012 C 466.110 202.594,467.000 203.711,467.000 204.495 C 467.000 206.146,462.062 211.000,460.383 211.000 C 459.757 211.000,458.639 211.730,457.899 212.621 C 456.769 213.983,454.909 214.169,446.277 213.785 C 440.625 213.534,436.000 213.674,436.000 214.096 C 436.000 214.518,437.307 215.794,438.904 216.932 C 441.833 219.017,446.000 219.729,446.000 218.144 C 446.000 216.695,459.824 215.838,462.295 217.134 C 464.427 218.253,464.442 218.226,462.764 216.332 C 460.830 214.150,461.982 212.000,465.085 212.000 C 466.012 212.000,467.507 210.875,468.408 209.500 C 469.525 207.795,470.958 207.000,472.916 207.000 C 475.358 207.000,477.000 205.546,477.000 203.383 C 477.000 203.133,475.025 202.082,472.610 201.047 C 470.196 200.012,467.919 198.678,467.551 198.083 C 466.531 196.432,470.451 196.771,474.454 198.679 C 478.569 200.642,480.078 199.849,477.549 197.054 C 473.925 193.050,457.331 191.897,442.670 194.630 M337.500 196.964 C 334.241 197.323,330.759 198.647,327.500 200.765 C 324.750 202.553,320.925 204.751,319.000 205.651 C 316.659 206.745,315.997 207.444,317.000 207.764 C 317.825 208.028,319.965 208.916,321.757 209.739 C 324.232 210.875,325.344 210.959,326.395 210.087 C 327.872 208.861,336.000 209.652,336.000 211.022 C 336.000 212.539,341.839 218.000,343.460 218.000 C 344.536 218.000,344.844 217.561,344.337 216.750 C 343.908 216.063,343.468 214.919,343.361 214.209 C 343.253 213.499,342.003 212.003,340.582 210.886 C 337.683 208.605,337.192 205.524,339.582 204.607 C 342.615 203.443,343.966 204.019,344.615 206.750 C 345.705 211.336,347.857 213.000,352.700 213.000 C 358.394 213.000,362.000 209.722,362.000 204.545 C 362.000 200.116,363.154 200.087,367.474 204.408 C 369.348 206.282,372.258 208.117,373.941 208.487 C 375.681 208.869,377.000 209.800,377.000 210.647 C 377.000 211.620,376.382 211.939,375.216 211.569 C 370.464 210.060,364.960 210.689,362.476 213.022 C 360.858 214.543,360.317 215.717,360.944 216.344 C 361.572 216.972,362.372 216.961,363.208 216.313 C 365.142 214.813,368.000 213.952,368.000 214.869 C 368.000 215.313,365.413 216.963,362.250 218.538 C 357.357 220.973,355.193 221.422,347.732 221.551 C 342.910 221.634,338.725 221.942,338.431 222.235 C 337.064 223.603,344.749 224.831,352.148 224.428 C 360.843 223.955,366.873 221.460,371.702 216.336 C 372.913 215.051,374.826 214.000,375.952 214.000 C 379.693 214.000,378.316 217.903,372.767 223.032 C 364.102 231.041,368.470 230.732,378.671 222.615 C 385.136 217.469,386.446 215.190,385.582 210.584 C 384.674 205.743,381.653 202.786,374.437 199.672 C 369.132 197.383,366.756 197.015,355.437 196.735 C 348.322 196.558,340.250 196.662,337.500 196.964 M489.475 197.040 C 489.119 197.617,489.498 199.111,490.317 200.360 C 491.651 202.397,491.634 202.756,490.153 203.813 C 488.770 204.801,489.063 204.954,491.948 204.747 L 495.395 204.500 495.302 213.183 C 495.225 220.337,494.750 222.834,492.604 227.371 C 491.172 230.399,490.000 233.552,490.000 234.379 C 490.000 235.206,489.550 236.160,489.000 236.500 C 488.450 236.840,488.000 238.891,488.000 241.059 C 488.000 243.971,488.409 245.000,489.567 245.000 C 490.792 245.000,491.065 244.083,490.817 240.813 C 490.541 237.172,490.794 236.552,492.752 236.063 C 493.991 235.753,496.535 233.345,498.405 230.711 C 504.446 222.203,504.025 208.204,497.478 199.880 C 495.270 197.074,490.500 195.381,489.475 197.040 M303.353 217.250 C 304.019 231.404,304.880 236.247,307.041 238.000 C 308.605 239.268,308.977 241.478,309.450 252.310 C 310.036 265.699,311.893 272.507,314.303 270.097 C 315.147 269.253,314.965 268.090,313.590 265.537 C 312.575 263.652,312.025 261.377,312.368 260.482 C 312.712 259.587,312.529 257.988,311.961 256.928 C 309.894 253.065,312.579 255.128,315.371 259.548 C 316.950 262.047,318.458 263.876,318.721 263.612 C 319.373 262.961,315.326 251.427,313.431 248.536 C 312.594 247.258,312.125 245.152,312.388 243.856 C 313.914 236.366,313.932 235.000,312.507 235.000 C 311.410 235.000,311.098 233.705,311.206 229.603 C 311.307 225.744,310.871 223.728,309.674 222.531 C 307.260 220.118,307.465 214.953,310.000 214.290 C 311.107 214.000,312.000 212.926,312.000 211.883 C 312.000 209.871,310.521 209.348,309.500 211.000 C 308.421 212.745,307.059 212.084,306.411 209.500 C 306.066 208.125,305.128 207.000,304.327 207.000 C 303.116 207.000,302.952 208.723,303.353 217.250 M383.446 224.195 C 383.048 225.463,381.256 227.850,379.465 229.500 C 377.415 231.388,375.581 234.521,374.517 237.952 C 373.588 240.951,371.966 244.499,370.914 245.837 C 369.861 247.175,368.985 248.772,368.967 249.385 C 368.920 250.950,365.403 255.000,364.090 255.000 C 362.720 255.000,362.665 256.675,364.007 257.504 C 364.561 257.847,365.269 257.464,365.579 256.654 C 365.890 255.843,367.250 254.903,368.601 254.564 C 370.194 254.164,371.617 252.639,372.649 250.224 C 377.704 238.394,378.963 235.289,379.486 233.358 C 379.805 232.179,381.402 230.662,383.033 229.986 C 384.705 229.294,386.065 227.937,386.150 226.879 C 386.233 225.845,386.345 224.475,386.400 223.833 C 386.591 221.606,384.166 221.903,383.446 224.195 M421.329 226.584 C 420.968 227.525,421.187 229.657,421.815 231.321 C 422.659 233.558,422.665 234.699,421.836 235.698 C 421.219 236.440,421.009 237.342,421.368 237.701 C 421.727 238.060,422.622 237.531,423.358 236.526 C 424.812 234.536,425.375 235.044,426.381 239.250 C 426.878 241.332,426.669 242.000,425.519 242.000 C 424.684 242.000,424.008 242.113,424.017 242.250 C 424.026 242.387,425.167 246.550,426.551 251.500 C 432.228 271.795,432.284 272.081,431.136 274.600 C 429.739 277.668,427.949 277.639,425.000 274.500 C 423.555 272.961,421.549 272.000,419.786 272.000 C 415.817 272.000,409.483 275.428,406.836 279.008 C 404.753 281.825,402.149 282.815,400.682 281.349 C 400.324 280.991,400.812 280.064,401.766 279.290 C 403.295 278.049,402.949 277.955,398.827 278.491 C 395.410 278.936,393.933 278.729,393.327 277.721 C 390.239 272.575,378.823 269.099,376.036 272.456 C 374.175 274.699,375.406 275.604,382.221 277.006 C 386.563 277.900,389.789 279.335,392.678 281.657 C 395.977 284.309,398.080 285.139,402.678 285.603 C 409.500 286.290,414.000 284.914,414.000 282.140 C 414.000 279.655,418.115 277.000,421.965 277.000 C 425.133 277.000,426.090 278.644,423.500 279.638 C 420.787 280.679,421.933 282.000,425.550 282.000 C 429.682 282.000,434.488 279.778,435.379 277.455 C 436.808 273.731,435.844 265.750,432.949 257.352 C 428.092 243.256,427.940 242.660,428.954 241.646 C 430.354 240.246,428.992 234.916,426.339 231.406 C 425.053 229.704,424.000 227.818,424.000 227.215 C 424.000 225.283,422.009 224.813,421.329 226.584 M494.178 237.722 C 493.671 238.700,492.940 241.673,492.555 244.329 C 492.045 247.840,491.478 249.014,490.478 248.630 C 489.617 248.300,489.295 248.606,489.619 249.449 C 489.903 250.190,489.146 251.718,487.936 252.845 C 485.908 254.734,485.826 255.252,486.889 259.474 C 487.708 262.725,487.736 264.625,486.986 266.026 C 485.899 268.057,486.236 268.359,489.250 268.052 C 491.657 267.807,491.462 269.719,489.000 270.500 C 486.497 271.294,486.469 272.187,488.898 273.704 C 490.460 274.680,490.897 274.590,491.369 273.195 C 492.098 271.038,494.226 267.698,495.419 266.836 C 496.552 266.019,494.913 259.804,493.434 259.311 C 492.864 259.121,491.971 260.180,491.449 261.665 C 490.640 263.964,490.519 263.596,490.625 259.182 C 490.694 256.332,490.806 253.759,490.875 253.466 C 490.944 253.172,492.379 254.342,494.065 256.067 C 497.479 259.559,499.032 259.297,497.036 255.567 C 496.145 253.903,495.883 250.580,496.205 245.027 C 496.671 236.962,495.940 234.326,494.178 237.722 M491.000 278.577 C 491.000 279.665,490.365 281.462,489.588 282.571 C 488.812 283.679,488.040 286.813,487.872 289.536 C 487.624 293.566,487.886 294.547,489.284 294.816 C 491.236 295.192,491.566 298.034,489.856 299.744 C 488.996 300.604,489.002 301.591,489.878 303.705 C 490.858 306.071,490.659 307.636,488.632 313.510 C 487.305 317.355,485.498 321.850,484.616 323.500 C 483.734 325.150,483.010 327.069,483.006 327.764 C 483.000 329.120,481.249 332.549,479.301 335.023 C 478.618 335.889,478.451 337.112,478.913 337.859 C 479.997 339.614,486.596 331.630,487.478 327.495 C 488.719 321.677,491.287 313.484,492.256 312.255 C 492.795 311.571,493.000 310.109,492.712 309.006 C 492.424 307.904,492.579 306.760,493.056 306.465 C 493.534 306.170,493.414 304.807,492.789 303.437 C 491.935 301.561,491.944 300.656,492.827 299.773 C 494.549 298.051,494.270 295.580,491.822 290.884 C 489.677 286.768,489.674 286.682,491.572 285.103 C 492.776 284.102,493.374 282.561,493.165 281.000 C 492.738 277.811,491.000 275.866,491.000 278.577 M384.074 285.411 C 383.234 286.424,383.213 287.013,384.000 287.500 C 385.708 288.555,383.178 291.000,380.378 291.000 C 379.070 291.000,378.000 291.431,378.000 291.958 C 378.000 292.485,375.863 294.155,373.250 295.670 C 367.858 298.798,365.994 300.821,366.733 302.745 C 367.013 303.476,366.441 304.960,365.461 306.043 C 364.481 307.126,364.011 308.344,364.417 308.750 C 364.823 309.156,366.936 307.578,369.113 305.244 C 371.291 302.910,373.753 301.000,374.586 301.000 C 377.024 301.000,381.665 298.242,383.806 295.520 C 384.896 294.134,386.177 293.000,386.653 293.000 C 387.129 293.000,388.073 292.112,388.751 291.028 C 389.695 289.516,389.713 288.465,388.831 286.528 C 387.543 283.701,385.827 283.298,384.074 285.411 M395.636 287.000 C 395.325 287.825,394.942 290.721,394.785 293.435 C 394.529 297.863,394.771 298.526,397.135 299.876 C 399.513 301.235,400.024 301.214,402.385 299.667 C 407.172 296.530,405.176 287.857,400.041 289.487 C 398.484 289.981,397.771 289.578,397.094 287.819 C 396.414 286.056,396.065 285.859,395.636 287.000 M410.184 292.716 C 410.461 295.099,411.361 295.734,417.500 297.884 C 421.350 299.232,427.611 302.511,431.413 305.172 C 435.215 307.832,438.537 309.796,438.796 309.537 C 439.754 308.579,429.420 300.078,427.250 300.040 C 426.012 300.018,425.000 299.494,425.000 298.875 C 425.000 298.158,426.089 297.968,428.000 298.350 C 431.464 299.043,431.910 298.050,428.961 296.208 C 427.267 295.150,426.662 295.196,425.381 296.477 C 424.533 297.325,423.313 297.687,422.669 297.283 C 421.876 296.783,422.063 296.435,423.250 296.200 C 424.212 296.009,425.000 295.463,425.000 294.986 C 425.000 293.310,423.060 292.945,420.910 294.216 C 419.182 295.238,418.646 295.245,418.286 294.250 C 418.037 293.563,417.026 293.000,416.039 293.000 C 415.052 293.000,413.685 292.325,413.000 291.500 C 411.077 289.183,409.834 289.719,410.184 292.716 M327.565 292.894 C 326.329 294.894,326.772 301.723,328.288 304.047 C 330.242 307.042,330.907 317.198,329.187 317.771 C 327.224 318.425,327.847 319.839,330.250 320.180 C 332.136 320.448,332.448 321.023,332.177 323.731 C 331.765 327.848,332.656 330.654,334.615 331.406 C 335.952 331.919,336.086 330.845,335.636 323.248 C 335.115 314.445,332.710 303.314,330.948 301.550 C 330.427 301.028,330.000 298.917,330.000 296.859 C 330.000 293.188,328.696 291.065,327.565 292.894 M452.000 296.941 C 452.000 297.459,452.462 298.167,453.026 298.516 C 453.591 298.865,454.029 300.579,453.999 302.325 C 453.970 304.071,454.235 306.968,454.589 308.763 C 455.121 311.469,454.962 311.923,453.656 311.422 C 452.790 311.089,451.726 309.018,451.291 306.819 C 449.992 300.249,448.499 302.368,448.517 310.754 C 448.532 317.543,448.748 318.464,450.267 318.206 C 451.893 317.930,452.559 319.205,451.988 321.500 C 451.276 324.362,451.632 330.812,452.494 330.667 C 453.703 330.464,454.026 347.866,452.826 348.607 C 452.372 348.888,452.000 350.351,452.000 351.859 C 452.000 353.367,451.588 355.028,451.085 355.550 C 450.581 356.073,450.019 357.621,449.835 358.991 C 449.628 360.527,448.446 361.985,446.750 362.795 C 445.097 363.585,444.000 364.911,444.000 366.120 C 444.000 367.226,443.515 369.037,442.923 370.144 C 442.331 371.251,442.118 372.865,442.451 373.732 C 443.417 376.249,445.919 372.232,446.021 368.000 C 446.104 364.526,446.116 364.516,447.674 366.750 C 449.600 369.510,451.000 369.645,451.000 367.071 C 451.000 366.011,451.788 364.358,452.750 363.400 C 455.272 360.888,457.973 353.373,456.782 352.182 C 456.159 351.559,456.242 350.417,457.016 348.971 C 457.676 347.737,458.359 343.751,458.533 340.114 C 458.707 336.476,459.165 332.690,459.551 331.699 C 460.012 330.517,459.530 329.128,458.147 327.656 C 456.169 325.551,456.100 324.896,457.013 316.957 C 458.508 303.945,458.324 301.642,455.548 298.646 C 452.960 295.854,452.000 295.392,452.000 296.941 M474.642 306.769 C 472.492 313.334,471.710 317.848,471.488 324.968 C 471.310 330.696,470.760 334.580,470.097 334.801 C 469.493 335.002,469.000 336.389,469.000 337.883 C 469.000 339.378,468.503 341.097,467.896 341.704 C 467.105 342.495,467.097 343.330,467.866 344.654 C 468.823 346.301,468.942 346.210,468.970 343.809 C 468.986 342.329,469.450 340.840,470.000 340.500 C 470.550 340.160,471.000 338.784,471.000 337.441 C 471.000 335.653,471.544 335.000,473.034 335.000 C 474.898 335.000,475.013 335.421,474.406 340.000 C 473.831 344.334,473.973 345.000,475.478 345.000 C 476.724 345.000,477.022 344.506,476.534 343.250 C 474.950 339.172,476.354 309.534,478.547 300.750 C 478.924 299.238,478.843 298.008,478.367 298.019 C 477.890 298.029,476.214 301.966,474.642 306.769 M406.000 301.988 C 400.659 306.139,398.567 306.404,394.155 303.484 C 390.415 301.009,389.826 300.901,386.306 302.041 C 379.585 304.217,373.359 307.803,371.576 310.525 C 369.373 313.887,370.008 314.565,373.097 312.147 C 378.016 308.297,388.064 303.886,390.314 304.588 C 393.452 305.566,394.125 307.160,392.469 309.688 C 391.498 311.170,391.369 312.110,392.078 312.548 C 393.284 313.293,393.270 313.306,394.597 310.129 C 395.352 308.322,396.457 307.705,399.242 307.536 C 402.487 307.339,402.938 307.606,403.262 309.907 C 403.616 312.423,403.676 312.392,405.276 308.871 C 406.183 306.875,407.591 304.987,408.405 304.675 C 410.053 304.042,414.888 305.245,419.500 307.433 C 421.167 308.224,423.761 309.339,425.265 309.911 C 426.769 310.483,428.000 311.637,428.000 312.475 C 428.000 313.318,428.868 314.000,429.941 314.000 C 431.009 314.000,432.166 314.460,432.513 315.021 C 432.884 315.622,431.982 316.057,430.322 316.078 C 417.664 316.234,392.481 315.971,388.100 315.637 C 377.474 314.827,363.000 317.667,363.000 320.562 C 363.000 322.668,364.615 323.105,367.666 321.824 C 369.659 320.988,380.653 320.614,404.700 320.567 C 429.116 320.519,439.230 320.170,440.053 319.347 C 440.924 318.476,439.862 317.334,435.714 314.680 C 432.692 312.747,429.908 310.660,429.526 310.042 C 428.342 308.126,421.780 304.479,415.397 302.189 C 408.134 299.584,409.067 299.604,406.000 301.988 M354.466 303.037 C 353.191 304.447,352.632 306.432,352.741 309.167 C 352.863 312.223,352.486 313.322,351.201 313.658 C 349.745 314.038,349.515 315.429,349.603 323.301 C 349.659 328.361,350.259 334.484,350.934 336.909 C 351.610 339.334,351.899 342.727,351.576 344.448 C 350.543 349.951,354.921 360.636,361.090 367.669 C 364.065 371.062,366.950 373.724,367.500 373.586 C 369.401 373.107,369.103 370.174,366.949 368.168 C 365.760 367.060,365.067 365.701,365.408 365.148 C 365.750 364.595,365.024 363.998,363.794 363.821 C 362.148 363.585,361.057 362.182,359.656 358.500 C 358.609 355.750,357.263 352.375,356.663 351.000 C 356.064 349.625,355.543 346.250,355.505 343.500 C 355.467 340.750,355.078 337.747,354.641 336.827 C 354.097 335.684,354.529 334.471,356.006 332.994 C 357.194 331.806,357.904 330.571,357.583 330.250 C 357.263 329.929,357.000 330.022,357.000 330.456 C 357.000 330.890,356.330 330.689,355.511 330.009 C 354.692 329.329,354.330 328.275,354.707 327.665 C 355.665 326.114,355.722 317.946,354.778 317.363 C 353.347 316.478,353.980 314.000,355.636 314.000 C 356.991 314.000,357.170 313.254,356.677 309.659 C 356.304 306.939,356.515 304.885,357.241 304.159 C 358.031 303.369,358.075 302.675,357.376 301.976 C 356.678 301.278,355.753 301.615,354.466 303.037 M317.644 313.767 C 316.962 314.870,320.629 326.586,323.265 331.726 C 325.300 335.696,328.589 338.699,327.342 335.449 C 327.036 334.652,327.284 334.000,327.893 334.000 C 328.905 334.000,329.485 336.172,329.069 338.399 C 328.976 338.894,329.147 339.940,329.447 340.724 C 329.915 341.942,330.213 341.930,331.497 340.646 C 333.962 338.181,333.253 334.528,329.521 330.453 C 326.772 327.452,326.284 326.363,327.195 325.264 C 328.141 324.125,327.912 323.978,325.925 324.448 C 323.858 324.937,323.242 324.455,321.750 321.183 C 320.788 319.072,320.000 316.619,320.000 315.731 C 320.000 313.900,318.391 312.558,317.644 313.767 M318.352 335.250 C 319.329 337.607,320.883 343.502,321.691 347.919 C 322.561 352.670,324.983 354.787,325.025 350.833 C 325.047 348.821,325.915 349.393,331.346 355.000 C 348.565 372.778,372.328 393.000,375.999 393.000 C 376.655 393.000,378.386 393.625,379.846 394.389 C 383.571 396.339,393.284 398.011,394.450 396.903 C 394.973 396.406,400.473 396.000,406.672 396.000 C 415.347 396.000,420.174 395.434,427.619 393.545 C 442.519 389.764,446.288 387.397,460.575 372.846 C 467.512 365.781,473.296 360.000,473.427 360.000 C 473.559 360.000,473.760 361.350,473.875 363.000 C 473.990 364.650,474.160 367.012,474.253 368.250 C 474.347 369.488,474.095 371.738,473.693 373.250 C 472.646 377.187,475.382 376.906,477.039 372.906 C 478.143 370.240,478.077 369.401,476.562 366.836 L 474.805 363.861 478.762 359.167 C 482.887 354.275,489.000 341.686,489.000 338.082 C 489.000 335.414,487.331 335.380,486.490 338.032 C 486.135 339.150,483.067 342.862,479.672 346.282 C 476.278 349.702,471.767 354.525,469.649 357.000 C 460.330 367.891,442.458 385.078,438.611 386.848 C 428.813 391.356,421.402 392.500,402.000 392.500 C 378.248 392.500,377.630 392.248,358.833 374.882 C 353.150 369.632,344.736 362.040,340.135 358.012 C 335.534 353.983,328.829 346.933,325.234 342.344 C 318.958 334.333,317.235 332.557,318.352 335.250 M424.500 340.965 C 421.200 341.334,413.775 341.503,408.000 341.341 C 401.084 341.146,394.769 341.607,389.500 342.689 C 385.100 343.593,380.375 344.412,379.000 344.510 C 374.490 344.830,374.000 344.988,374.000 346.114 C 374.000 346.859,375.423 347.014,378.308 346.581 C 383.230 345.843,390.993 348.269,387.750 349.532 C 386.788 349.907,386.000 350.667,386.000 351.220 C 386.000 352.256,388.473 351.966,395.500 350.106 C 397.700 349.524,402.903 349.037,407.062 349.024 C 412.454 349.007,415.774 348.445,418.630 347.065 C 420.832 346.001,423.954 344.841,425.567 344.487 C 427.180 344.134,429.512 343.353,430.750 342.753 C 433.164 341.582,433.808 339.905,431.750 340.147 C 431.063 340.228,427.800 340.596,424.500 340.965 M276.314 377.485 C 269.476 379.972,264.001 382.985,253.500 390.041 C 249.650 392.627,233.675 401.487,218.000 409.729 C 176.323 431.642,172.530 433.767,148.000 448.947 C 134.508 457.297,130.938 460.248,117.673 474.017 C 106.485 485.630,104.607 488.110,99.709 497.743 C 92.980 510.978,87.000 525.861,87.000 529.374 C 87.000 534.418,89.554 531.959,91.803 524.750 C 93.047 520.763,97.131 511.172,100.879 503.437 C 107.605 489.558,107.863 489.199,120.577 476.076 C 127.663 468.763,135.481 461.366,137.950 459.640 C 144.672 454.940,174.054 437.241,185.500 430.998 C 188.800 429.198,193.300 426.718,195.500 425.487 C 197.700 424.256,204.675 420.544,211.000 417.237 C 240.241 401.949,251.745 395.653,255.952 392.634 C 262.981 387.590,273.240 382.118,278.713 380.492 C 281.441 379.683,284.491 378.115,285.491 377.010 C 287.266 375.049,287.252 375.003,284.905 375.117 C 283.582 375.182,279.716 376.247,276.314 377.485 " stroke="none" fill="#000000" fill-rule="evenodd"/></svg>